<?xml version="1.0" encoding="utf-8"?>
<!-- Generator: Adobe Illustrator 21.1.0, SVG Export Plug-In . SVG Version: 6.00 Build 0)  -->
<svg version="1.1" id="Layer_1" xmlns="http://www.w3.org/2000/svg" xmlns:xlink="http://www.w3.org/1999/xlink" x="0px" y="0px"
	 viewBox="0 0 4635.7 1287.7" style="enable-background:new 0 0 4635.7 1287.7;" xml:space="preserve">
<style type="text/css">
	.st0{fill:#F26222;}
	.st1{fill:#00293B;}
</style>
<g>
	<g>
		<path class="st0" d="M162.3,752v168.7H77.2V407.3h194.3c157.7,0,202.4,84.3,202.4,172.3c0,88.7-44.7,172.3-202.4,172.3H162.3z
			 M162.3,479.9v200.2h108.5c92.4,0,116.6-48.4,116.6-99.7c0-52.1-24.2-100.5-116.6-100.5H162.3z"/>
		<path class="st0" d="M558.3,407.3h335.1v71.9H643.3V620H878v68.9H643.3v159.9h260.3v71.9H558.3V407.3z"/>
		<path class="st0" d="M998.2,407.3h201.7c154.7,0,202.4,96.1,202.4,184.1v145.2c0,88-47.7,184.1-202.4,184.1H998.2V407.3z
			 M1199.9,845.9c90.2,0,117.3-57.9,117.3-113.7V595.8c0-55.7-27.1-113.7-117.3-113.7h-116.6v363.7H1199.9z"/>
		<path class="st0" d="M1769,796.7h-196.5l-41.8,123.9h-85.8l185.5-513.3h85.8L1901,920.7h-89.5L1769,796.7z M1670.7,506.3
			l-75.5,222.9h151.1L1670.7,506.3z"/>
		<path class="st0" d="M2344.6,743.9c0,97.5-46.2,184.8-198.7,184.8c-157.7,0-200.9-96.1-200.9-184.1V582.6
			c0-87.3,47.7-183.3,199.5-183.3c151.1,0,198,79.2,198,150.3v13.2h-84.3v-9.5c0-38.1-26.4-79.2-113.7-79.2
			c-87.3,0-114.4,55.7-114.4,108.5v162.1c0,53.5,24.9,109.3,115.9,109.3c80.7,0,114.4-43.3,114.4-94.6v-34.5h-110.7v-63.1h195.1
			V743.9z"/>
		<path class="st0" d="M4102.3,743.9c0,97.5-46.2,184.8-198.7,184.8c-157.7,0-200.9-96.1-200.9-184.1V582.6
			c0-87.3,47.7-183.3,199.5-183.3c151.1,0,198,79.2,198,150.3v13.2h-84.3v-9.5c0-38.1-26.4-79.2-113.7-79.2
			c-87.3,0-114.4,55.7-114.4,108.5v162.1c0,53.5,24.9,109.3,115.9,109.3c80.7,0,114.4-43.3,114.4-94.6v-34.5h-110.7v-63.1h195.1
			V743.9z"/>
		<path class="st0" d="M4308.4,920.7V731.5l-173.8-324.1h91.7l124.7,240.5l127.6-240.5h88.7l-173.8,318.3v195.1H4308.4z"/>
	</g>
	<g>
		<g>
			<path class="st1" d="M3502.4,451.7c0,0-1.9,159.5-52.9,269s-151,175.6-151,175.6s203.9-79.3,237.9-194.4
				S3502.4,451.7,3502.4,451.7z"/>
			<path class="st1" d="M3024.8,1101.9c0,0-9.4-53.7,71.7-81.6c81.2-27.9,98.1,0.4,187.8-12.8s165.2-92.5,186-126.5
				s-90.6,171.8-90.6,171.8l-309.6,118.9C3070.2,1171.8,3009.6,1147.9,3024.8,1101.9z"/>
		</g>
	</g>
	<path class="st0" d="M3014.5,1210.7c-150.5,0-291.9-58.6-398.4-165s-165-247.9-165-398.4c0-150.5,58.6-291.9,165-398.4
		S2864,84,3014.5,84c150.5,0,291.9,58.6,398.4,165c106.4,106.4,165,247.9,165,398.4c0,150.5-58.6,291.9-165,398.4
		C3306.4,1152.1,3164.9,1210.7,3014.5,1210.7z M3014.5,154c-272.1,0-493.4,221.3-493.4,493.4s221.3,493.4,493.4,493.4
		s493.4-221.3,493.4-493.4S3286.5,154,3014.5,154z"/>
	<g>
		<g>
			<g>
				<path class="st1" d="M3043.3,615.1c-8.6-63.9-71.6-58.6-79.1-1.7c1.3,57.2,15.4,100.4,38.7,133.5
					C3027.4,710.4,3045.1,669.2,3043.3,615.1L3043.3,615.1z"/>
				<g>
					<path class="st1" d="M3050.3,451.7c0-64.5,52.5-117,117-117c64.5,0,117,52.5,117,117c0,64.5-52.5,117-117,117
						C3102.8,568.7,3050.3,516.2,3050.3,451.7z M3075.2,451.7c0,50.8,41.3,92.1,92.1,92.1c50.8,0,92.1-41.3,92.1-92.1
						c0-50.8-41.3-92.1-92.1-92.1C3116.5,359.6,3075.2,400.9,3075.2,451.7z"/>
				</g>
				<path class="st1" d="M3159.9,451.7l-44.8,24.9c-3.6-7.5-5.7-15.9-5.7-24.9c0-31.9,25.9-57.8,57.8-57.8c32,0,57.9,25.9,57.9,57.8
					c0,31.9-25.9,57.9-57.9,57.9c-7.8,0-15.2-1.6-22-4.4L3159.9,451.7z"/>
				<g>
					<path class="st1" d="M2711.1,451.7c0-64.5,52.5-117,117-117c64.5,0,117,52.5,117,117c0,64.5-52.5,117-117,117
						C2763.6,568.7,2711.1,516.2,2711.1,451.7z M2736.1,451.7c0,50.8,41.3,92.1,92.1,92.1c50.8,0,92.1-41.3,92.1-92.1
						c0-50.8-41.3-92.1-92.1-92.1C2777.4,359.6,2736.1,400.9,2736.1,451.7z"/>
				</g>
				<path class="st1" d="M2820.7,451.7l-44.8,24.9c-3.6-7.5-5.7-15.9-5.7-24.9c0-31.9,25.9-57.8,57.8-57.8c32,0,57.8,25.9,57.8,57.8
					c0,31.9-25.9,57.9-57.8,57.9c-7.8,0-15.2-1.6-22-4.4L2820.7,451.7z"/>
				<path class="st1" d="M3329.6,166.9c12.2-14.8,31.7-23,54.6-28c-14.6-2.8-29-4-42.9-2.5c17-32.3,46.4-60,82.6-85.3
					c-76.2,16-142.8,46.8-179.2,124.1c-134-88.3-319.8-80.3-458.5,6.6c-35.6-82.1-103.8-114.2-182.2-130.6
					c36.3,25.3,65.8,53,82.7,85.4c-14.1-1.8-28.8-0.5-43.8,2.4c23.7,5.2,43.7,13.8,55.8,29.6c7,29.2,4.2,62-11.7,99.4
					c-85.2,102.2-172.8,272.3-113.1,460.8c-0.1,0.1,49.6-20.2,49.7-20c14.3,33.5,10.6,283.9,343,408c-21.6-26.2-34.5-59.7-34.5-96.3
					c0-83.7,67.9-151.6,151.6-151.6c12.3,0-21.5,37.9-10,40.7c33-9.9,110.7-59,142.4-73.5c40.3-18.5,81.9-50.3,111.6-83
					c116.3-128,117.1-344.6,14.7-480.9C3325,232.1,3321.9,197.6,3329.6,166.9z M3002.5,776.5C2723,765.7,2596,568.8,2687.9,362.2
					c80.9-136.3,223.8-165.2,319.6,26.4c99.5-174,261.6-195.9,331.1,24.7C3381.7,629.3,3283.5,753.3,3002.5,776.5z"/>
			</g>
		</g>
	</g>
	<g>
		<path class="st1" d="M172.4,1197.5h-104v-147h21.8v124.7l-2.2,2.2h84.4V1197.5z"/>
		<path class="st1" d="M297,1149.6h-92l2.2,2.2c3.3,17.8,14.7,28.7,35.4,28.7c12,0,22-4.4,31-12.9l14.5,14.5
			c-12.9,11.8-28.1,17.2-45.6,17.2c-39.4,0-57.5-25.2-57.5-58.1c0-34.7,20.7-59.9,56.6-59.9c37.9,0,55.9,25.8,55.9,59.9
			C297.6,1143.9,297.4,1146.7,297,1149.6z M277.6,1131l-2.2-2.2c-3.3-17.4-14.2-28.7-33.8-28.7c-20.1,0-30.5,11.8-34.1,28.7
			l-2.4,2.2H277.6z"/>
		<path class="st1" d="M422.8,1197.5h-21.2v-8.7h-0.4c-9.8,7.8-22.3,10.7-34.7,10.7c-23.2,0-49-8.7-49-36.1
			c0-35.8,46.6-37.9,75.5-37.9c2.9,0,8.5,0.2,10.7,0.4l-2.2-2.2c-0.2-0.4,0-2-0.2-2.2c-1.1-15.2-13.2-20.9-29-20.9
			c-11.6,0-24.7,2.5-34.7,10.9l-14-14.3c15.4-12,30.8-15.6,48.6-15.6c24.9,0,50.5,9.6,50.5,42.3V1197.5z M403.7,1144.1
			c-2,0-7.1-0.4-9.8-0.4c-5.3,0-11.6,0-18.1,0.4c-6.5,0.4-13.4,1.3-19.4,2.7c-10.9,2.7-17.8,7.8-17.8,16.5
			c0,13.6,16.5,17.1,27.9,17.1c10.7,0,35-2.4,35-17.1v-17.1L403.7,1144.1z"/>
		<path class="st1" d="M516.2,1103.5h-6.7c-19.1-0.2-33.8,10.4-33.8,37.6v56.4h-21.2v-114.3h21.2v18.3h0.4
			c6.5-12.5,20.1-19.6,35.2-19.6h4.9V1103.5z"/>
		<path class="st1" d="M641,1197.5h-21.2v-69c0-16.5-4.9-28.1-29.6-28.1c-18.5,0-32.8,10.2-32.8,29.6v67.5h-21.2v-114.3h21.2v12.3
			h0.4c7.8-8.7,21.6-14.2,35-14.2c29.8,0,48.3,15.8,48.3,43.9V1197.5z"/>
		<path class="st1" d="M683.4,1070.8c-8,0-12.7-5.6-12.7-13.4c0-7.8,4.9-13.4,12.7-13.4c8,0,12.7,5.6,12.7,13.4
			C696.1,1065.2,691.2,1070.8,683.4,1070.8z M694,1197.5h-21.2v-114.3H694V1197.5z"/>
		<path class="st1" d="M831.5,1197.5h-21.2v-69c0-16.5-4.9-28.1-29.6-28.1c-18.5,0-32.8,10.2-32.8,29.6v67.5h-21.2v-114.3h21.2v12.3
			h0.4c7.8-8.7,21.6-14.2,35-14.2c29.8,0,48.3,15.8,48.3,43.9V1197.5z"/>
		<path class="st1" d="M967.2,1083.1v103.4c0,31.6-17.8,49.9-54.1,49.9c-18.1,0-33.9-4.9-49-16.3l14.3-14.5
			c9.6,7.4,23.1,11.8,34.7,11.8c22,0,32.8-11.4,32.8-30.8v-9.4h-0.4c-8.5,8.5-20.1,12.7-34.3,12.7c-36.3,0-54.4-22-54.4-53.9
			c0-29.8,18.5-54.6,54.3-54.6c14.2,0,27,5.1,34.5,13.4h0.4v-11.6H967.2z M912.4,1100.4c-23.4,0-34.3,15.4-34.3,35.6
			c0,20.9,11.6,34.8,34.3,34.8c24.9,0,35-14.9,35-34.8C947.4,1115.3,935.6,1100.4,912.4,1100.4z"/>
		<path class="st1" d="M1125.4,1142.8h-49.7l2.2,2.2v52.4h-21.8v-147h69.3c32.5,0,50.8,19.2,50.8,46.1
			C1176.2,1122.5,1157.9,1142.8,1125.4,1142.8z M1125.4,1070.6h-49.7l2.2,2.2v47.7l-2.2,2.2h49.7c19.6,0,28.5-10.9,28.5-26.1
			C1153.9,1080.9,1145.2,1070.6,1125.4,1070.6z"/>
		<path class="st1" d="M1306.3,1149.6h-92l2.2,2.2c3.3,17.8,14.7,28.7,35.4,28.7c12,0,22-4.4,31-12.9l14.5,14.5
			c-12.9,11.8-28.1,17.2-45.6,17.2c-39.4,0-57.5-25.2-57.5-58.1c0-34.7,20.7-59.9,56.6-59.9c37.9,0,55.9,25.8,55.9,59.9
			C1306.8,1143.9,1306.6,1146.7,1306.3,1149.6z M1286.8,1131l-2.2-2.2c-3.3-17.4-14.2-28.7-33.8-28.7c-20.1,0-30.5,11.8-34.1,28.7
			l-2.4,2.2H1286.8z"/>
		<path class="st1" d="M1394.8,1103.5h-6.7c-19.1-0.2-33.8,10.4-33.8,37.6v56.4h-21.2v-114.3h21.2v18.3h0.4
			c6.5-12.5,20.1-19.6,35.2-19.6h4.9V1103.5z"/>
		<path class="st1" d="M1460.3,1199.5c-18.1,0-37.2-5.4-51.9-20.3l14.5-14.7c13.8,12.2,24.1,16,36.8,16c20.1,0,27.2-7.8,27.2-14.5
			c0-5.6-2.9-10-18.5-14c-2.4-0.5-17.8-4.9-20.3-5.6c-20-5.4-36.5-13.4-36.5-32.1c0-17.8,16-32.8,47.4-32.8
			c18.1,0,33.9,6.2,46.6,19.4l-14.5,14.5c-8.7-10-19.1-14.9-32.1-14.9c-19.6,0-25.9,8-25.9,13.2c0,6.2,6.5,9.4,23.6,14
			c2.4,0.7,15.8,4.7,18.3,5.3c23.2,6.2,33.4,16.7,33.4,32.3C1508.4,1182.8,1494.2,1199.5,1460.3,1199.5z"/>
		<path class="st1" d="M1584.5,1199.3c-37.7,0-56.3-25.2-56.3-59c0-33.8,18.7-59,56.1-59c37.7,0,56.4,24.9,56.4,59
			C1640.8,1173.9,1621.7,1199.3,1584.5,1199.3z M1584.5,1100.4c-24.7,0-35,17.1-35,39.9c0,22.5,10.5,39.9,35,39.9
			c24.7,0,35-17.2,35-39.9C1619.6,1117.6,1609,1100.4,1584.5,1100.4z"/>
		<path class="st1" d="M1772,1197.5h-21.2v-69c0-16.5-4.9-28.1-29.6-28.1c-18.5,0-32.8,10.2-32.8,29.6v67.5h-21.2v-114.3h21.2v12.3
			h0.4c7.8-8.7,21.6-14.2,35-14.2c29.8,0,48.3,15.8,48.3,43.9V1197.5z"/>
		<path class="st1" d="M1902.6,1197.5h-21.2v-8.7h-0.4c-9.8,7.8-22.3,10.7-34.7,10.7c-23.2,0-49-8.7-49-36.1
			c0-35.8,46.6-37.9,75.5-37.9c2.9,0,8.5,0.2,10.7,0.4l-2.2-2.2c-0.2-0.4,0-2-0.2-2.2c-1.1-15.2-13.2-20.9-29-20.9
			c-11.6,0-24.7,2.5-34.7,10.9l-14-14.3c15.4-12,30.8-15.6,48.6-15.6c24.9,0,50.5,9.6,50.5,42.3V1197.5z M1883.5,1144.1
			c-2,0-7.1-0.4-9.8-0.4c-5.3,0-11.6,0-18.1,0.4c-6.5,0.4-13.4,1.3-19.4,2.7c-10.9,2.7-17.8,7.8-17.8,16.5
			c0,13.6,16.5,17.1,27.9,17.1c10.7,0,35-2.4,35-17.1v-17.1L1883.5,1144.1z"/>
		<path class="st1" d="M1955.5,1197.5h-21.2V1045h21.2V1197.5z"/>
		<path class="st1" d="M1998.9,1070.8c-8,0-12.7-5.6-12.7-13.4c0-7.8,4.9-13.4,12.7-13.4c8,0,12.7,5.6,12.7,13.4
			C2011.6,1065.2,2006.7,1070.8,1998.9,1070.8z M2009.4,1197.5h-21.2v-114.3h21.2V1197.5z"/>
		<path class="st1" d="M2087.6,1199.5c-18.1,0-37.2-5.4-51.9-20.3l14.5-14.7c13.8,12.2,24.1,16,36.8,16c20.1,0,27.2-7.8,27.2-14.5
			c0-5.6-2.9-10-18.5-14c-2.4-0.5-17.8-4.9-20.3-5.6c-20-5.4-36.5-13.4-36.5-32.1c0-17.8,16-32.8,47.4-32.8
			c18.1,0,33.9,6.2,46.6,19.4l-14.5,14.5c-8.7-10-19.1-14.9-32.1-14.9c-19.6,0-25.9,8-25.9,13.2c0,6.2,6.5,9.4,23.6,14
			c2.4,0.7,15.8,4.7,18.3,5.3c23.2,6.2,33.4,16.7,33.4,32.3C2135.7,1182.8,2121.5,1199.5,2087.6,1199.5z"/>
		<path class="st1" d="M2267.6,1149.6h-92l2.2,2.2c3.3,17.8,14.7,28.7,35.4,28.7c12,0,22-4.4,31-12.9l14.5,14.5
			c-12.9,11.8-28.1,17.2-45.6,17.2c-39.4,0-57.5-25.2-57.5-58.1c0-34.7,20.7-59.9,56.6-59.9c37.9,0,55.9,25.8,55.9,59.9
			C2268.1,1143.9,2268,1146.7,2267.6,1149.6z M2248.2,1131l-2.2-2.2c-3.3-17.4-14.2-28.7-33.8-28.7c-20.1,0-30.5,11.8-34.1,28.7
			l-2.4,2.2H2248.2z"/>
		<path class="st1" d="M2398.4,1197.5h-21.2v-11.3h-0.4c-7.8,8.5-19.6,13.1-34.5,13.1c-36.1,0-54.3-24.7-54.3-58.4
			c0-34.3,18.1-59.5,54.3-59.5c14.2,0,26.9,5.4,34.5,14h0.4V1045h21.2V1197.5z M2344,1100.6c-24.7,0-34.7,17.2-34.7,40.1
			c0,22.9,9.6,39.6,34.7,39.6c25,0,34.7-16.7,34.7-39.6C2378.6,1117.6,2369.2,1100.6,2344,1100.6z"/>
	</g>
</g>
</svg>
